<?xml version="1.0" encoding="utf-8"?>
<!-- Generator: Adobe Illustrator 22.0.1, SVG Export Plug-In . SVG Version: 6.00 Build 0)  -->
<svg version="1.1" id="Layer_1" xmlns="http://www.w3.org/2000/svg" xmlns:xlink="http://www.w3.org/1999/xlink" x="0px" y="0px"
	 viewBox="0 0 1282 1021" style="enable-background:new 0 0 1282 1021;" xml:space="preserve">
<style type="text/css">
	.st0{clip-path:url(#SVGID_2_);}
	.st1{fill:#272556;}
	.st2{opacity:0.15;fill:url(#SVGID_3_);enable-background:new    ;}
	.st3{opacity:0.15;fill:url(#SVGID_4_);enable-background:new    ;}
	.st4{opacity:0.15;fill:url(#SVGID_5_);enable-background:new    ;}
	.st5{opacity:0.15;fill:url(#SVGID_6_);enable-background:new    ;}
	.st6{opacity:0.15;fill:url(#SVGID_7_);enable-background:new    ;}
	.st7{opacity:0.15;fill:url(#SVGID_8_);enable-background:new    ;}
	.st8{opacity:0.69;}
	.st9{fill:#3D6694;}
	.st10{fill:#2A3A66;}
	.st11{opacity:0.3;fill:#3C3F7A;enable-background:new    ;}
	.st12{fill:#36386F;}
	.st13{fill:#303163;}
	.st14{opacity:0.3;}
	.st15{fill:#22224F;}
	.st16{fill:#3E437F;}
	.st17{fill:url(#SVGID_9_);}
	.st18{fill:#5BCBF5;}
	.st19{fill:#007BBD;}
	.st20{fill:#FFFFFF;}
	.st21{fill:#B7D1DE;}
	.st22{fill:#8038B8;}
	.st23{fill:#9844D2;}
</style>
<title>background</title>
<g>
	<g id="Layer_1_1_">
		<g>
			<defs>
				<rect id="SVGID_1_" y="-3.3" width="1282" height="1024"/>
			</defs>
			<clipPath id="SVGID_2_">
				<use xlink:href="#SVGID_1_"  style="overflow:visible;"/>
			</clipPath>
			<g class="st0">
				<rect y="-3.3" class="st1" width="1282" height="1024"/>
				<g id="Stripes">
					<g>
						
							<linearGradient id="SVGID_3_" gradientUnits="userSpaceOnUse" x1="481.5594" y1="-1812.1782" x2="481.5594" y2="-2030.6382" gradientTransform="matrix(-0.866 0.5 0.5 0.866 2019.2546 1835.7283)">
							<stop  offset="0" style="stop-color:#FFFFFF"/>
							<stop  offset="1" style="stop-color:#FFFFFF"/>
						</linearGradient>
						<polygon class="st2" points="0,655.5 1282,60.8 1282,167.8 0,762.5 						"/>
					</g>
					<g>
						
							<linearGradient id="SVGID_4_" gradientUnits="userSpaceOnUse" x1="541.9519" y1="-1732.1084" x2="541.9519" y2="-1901.9783" gradientTransform="matrix(-0.866 0.5 0.5 0.866 2019.2546 1835.7283)">
							<stop  offset="0" style="stop-color:#FFFFFF"/>
							<stop  offset="1" style="stop-color:#FFFFFF"/>
						</linearGradient>
						<polygon class="st3" points="0,804.3 1282,209.6 1282,260.5 0,855.2 						"/>
					</g>
					<g>
						
							<linearGradient id="SVGID_5_" gradientUnits="userSpaceOnUse" x1="544.6714" y1="-1374.3783" x2="544.6714" y2="-1563.6982" gradientTransform="matrix(-0.866 0.5 0.5 0.866 2019.2546 1835.7283)">
							<stop  offset="0" style="stop-color:#FFFFFF"/>
							<stop  offset="1" style="stop-color:#FFFFFF"/>
						</linearGradient>
						<polygon class="st4" points="296.8,1023.4 527.6,1023.4 1282,673.5 1282,566.5 						"/>
					</g>
					<g>
						
							<linearGradient id="SVGID_6_" gradientUnits="userSpaceOnUse" x1="442.9221" y1="-1294.4384" x2="442.9221" y2="-1403.6583" gradientTransform="matrix(-0.866 0.5 0.5 0.866 2019.2546 1835.7283)">
							<stop  offset="0" style="stop-color:#FFFFFF"/>
							<stop  offset="1" style="stop-color:#FFFFFF"/>
						</linearGradient>
						<polygon class="st5" points="617.8,1023.4 727.5,1023.4 1282,766.2 1282,715.3 						"/>
					</g>
					<g>
						
							<linearGradient id="SVGID_7_" gradientUnits="userSpaceOnUse" x1="494.5153" y1="-2078.3284" x2="494.5153" y2="-2225.5583" gradientTransform="matrix(-0.866 0.5 0.5 0.866 2019.2546 1835.7283)">
							<stop  offset="0" style="stop-color:#FFFFFF"/>
							<stop  offset="1" style="stop-color:#FFFFFF"/>
						</linearGradient>
						<polygon class="st6" points="941.7,-6 0,430.8 0,481.7 1051.4,-6 						"/>
					</g>
					<g>
						
							<linearGradient id="SVGID_8_" gradientUnits="userSpaceOnUse" x1="436.8884" y1="-1987.3684" x2="436.8884" y2="-2152.4382" gradientTransform="matrix(-0.866 0.5 0.5 0.866 2019.2546 1835.7283)">
							<stop  offset="0" style="stop-color:#FFFFFF"/>
							<stop  offset="1" style="stop-color:#FFFFFF"/>
						</linearGradient>
						<polygon class="st7" points="1123.5,-6 0,515.2 0,566 1233.2,-6 						"/>
					</g>
				</g>
				<g class="st8">
					<circle class="st9" cx="412.8" cy="700.8" r="5.8"/>
					<path class="st9" d="M453.5,613.2c0,1.5-1.2,2.7-2.7,2.7c-1.5,0-2.7-1.2-2.7-2.7s1.2-2.7,2.7-2.7c0,0,0,0,0,0
						C452.3,610.4,453.5,611.6,453.5,613.2z"/>
					<circle class="st9" cx="527.5" cy="716.1" r="4.1"/>
					<path class="st10" d="M467.2,754.5c0,2.3-1.8,4.1-4.1,4.1c-2.3,0-4.1-1.8-4.1-4.1c0-2.3,1.8-4.1,4.1-4.1c0,0,0,0,0,0
						C465.4,750.4,467.2,752.2,467.2,754.5C467.2,754.5,467.2,754.5,467.2,754.5z"/>
					<circle class="st10" cx="540.9" cy="634.8" r="9.3"/>
					<path class="st9" d="M606.8,699.2c2.3-2.3,6-2.3,8.3,0c2.3,2.3,2.3,6,0,8.3c-2.3,2.3-6,2.3-8.3,0
						C604.6,705.1,604.6,701.4,606.8,699.2C606.8,699.2,606.8,699.2,606.8,699.2z"/>
					<circle class="st10" cx="971.6" cy="385.6" r="4.1"/>
					
						<ellipse transform="matrix(0.9998 -1.999601e-02 1.999601e-02 0.9998 -7.8902 16.335)" class="st9" cx="812.9" cy="402.7" rx="5.8" ry="5.8"/>
					<path class="st9" d="M864.9,486.3c-1.3-0.8-1.7-2.5-0.9-3.7s2.5-1.7,3.7-0.9s1.7,2.5,0.9,3.7c0,0,0,0,0,0
						C867.9,486.7,866.2,487.1,864.9,486.3z"/>
					<path class="st10" d="M737,424.7c-2-1.2-2.6-3.7-1.4-5.7s3.7-2.6,5.7-1.4c2,1.2,2.6,3.7,1.4,5.7c0,0,0,0,0,0
						C741.5,425.3,738.9,425.9,737,424.7z"/>
					<path class="st10" d="M796.3,557.8c-4.4-2.7-5.8-8.4-3.1-12.7c2.7-4.4,8.4-5.8,12.7-3.1c4.4,2.7,5.8,8.4,3.1,12.7c0,0,0,0,0,0
						C806.3,559,800.7,560.4,796.3,557.8z"/>
					<path class="st9" d="M711.9,572.8c0.8,3.1-1.2,6.3-4.3,7.1c-3.1,0.8-6.3-1.2-7.1-4.3c-0.8-3.1,1.2-6.3,4.3-7.1
						C707.9,567.7,711.1,569.7,711.9,572.8C711.9,572.8,711.9,572.8,711.9,572.8z"/>
					<path class="st10" d="M771.8,613.4c0.6,2.2-0.8,4.5-3,5s-4.5-0.8-5-3s0.8-4.5,3-5c0,0,0,0,0,0
						C769,609.9,771.3,611.2,771.8,613.4z"/>
					<path class="st9" d="M1011.9,128.2c1.8-1.4,4.4-1.2,5.8,0.6c1.4,1.8,1.2,4.4-0.6,5.8c-1.8,1.4-4.4,1.2-5.8-0.6
						C1009.8,132.2,1010.1,129.6,1011.9,128.2z"/>
					<path class="st10" d="M634.1,449.3c1.8-1.4,4.4-1.1,5.8,0.6c1.4,1.8,1.1,4.4-0.6,5.8c-1.8,1.4-4.4,1.1-5.8-0.6
						C632,453.3,632.3,450.7,634.1,449.3C634.1,449.3,634.1,449.3,634.1,449.3z"/>
					<path class="st10" d="M936.9,164.8c4-3.2,9.8-2.6,13,1.4c3.2,4,2.6,9.8-1.4,13s-9.8,2.6-13-1.4c0,0,0,0,0,0
						C932.3,173.8,932.9,168,936.9,164.8z"/>
					<path class="st9" d="M735.9,712.9c1.8-1.4,4.4-1.2,5.8,0.6s1.2,4.4-0.6,5.8c-1.8,1.4-4.4,1.2-5.8-0.6
						C733.8,716.9,734.1,714.3,735.9,712.9C735.9,712.9,735.9,712.9,735.9,712.9z"/>
					<path class="st10" d="M446.8,178.6c1.8-1.4,4.4-1.2,5.8,0.6c1.4,1.8,1.2,4.4-0.6,5.8c-1.8,1.4-4.4,1.2-5.8-0.6
						C444.7,182.6,445,180,446.8,178.6C446.8,178.6,446.8,178.6,446.8,178.6z"/>
					<path class="st10" d="M339.8,247.2c1.6,2.1,1.2,5-0.9,6.6c-2.1,1.6-5,1.2-6.6-0.9c-1.6-2.1-1.2-5,0.9-6.6c0,0,0,0,0,0
						C335.3,244.8,338.2,245.2,339.8,247.2z"/>
					<path class="st9" d="M557.5,38.2c-3.2-0.3-5.5-3.2-5.2-6.4c0.3-3.2,3.2-5.5,6.4-5.2c3.2,0.3,5.5,3.2,5.2,6.4c0,0,0,0,0,0
						C563.6,36.2,560.7,38.5,557.5,38.2z"/>
					<path class="st10" d="M892.9,122.8c-2.3-0.2-3.9-2.3-3.7-4.6s2.3-3.9,4.6-3.7s3.9,2.3,3.7,4.6c0,0,0,0,0,0
						C897.2,121.4,895.2,123.1,892.9,122.8z"/>
					<path class="st9" d="M1011.6,680.1c-1-1.6-0.5-3.6,1.1-4.6c1.6-1,3.6-0.5,4.6,1.1c1,1.6,0.5,3.6-1.1,4.6c0,0,0,0,0,0
						C1014.6,682.2,1012.6,681.7,1011.6,680.1C1011.6,680.1,1011.6,680.1,1011.6,680.1z"/>
					<path class="st9" d="M1025.7,774.4c-0.8-1.3-0.4-3,0.9-3.8c1.3-0.8,3-0.4,3.8,0.9c0.8,1.3,0.4,3-0.9,3.8c0,0,0,0,0,0
						C1028.2,776.1,1026.5,775.7,1025.7,774.4z"/>
					<path class="st9" d="M905.2,727.7c-1.2-1.9-0.6-4.5,1.3-5.7s4.5-0.6,5.7,1.3s0.6,4.5-1.3,5.7c0,0,0,0,0,0
						C908.9,730.3,906.4,729.7,905.2,727.7z"/>
					<path class="st10" d="M939.9,661.2c-1.2-1.9-0.6-4.5,1.3-5.7s4.5-0.6,5.7,1.3s0.6,4.5-1.3,5.7c0,0,0,0,0,0
						C943.7,663.7,941.1,663.1,939.9,661.2C939.9,661.2,939.9,661.2,939.9,661.2z"/>
					<path class="st10" d="M934.9,804.9c-1.7-2.8-0.8-6.4,1.9-8.2s6.4-0.8,8.2,1.9c1.7,2.8,0.8,6.4-1.9,8.2
						C940.2,808.6,936.6,807.7,934.9,804.9C934.9,804.9,934.9,804.9,934.9,804.9z"/>
					<path class="st9" d="M850,781.5c-0.7,3.1-3.9,5.1-7,4.4s-5.1-3.9-4.4-7c0.7-3.1,3.9-5.1,7-4.4c0,0,0,0,0,0
						C848.8,775.3,850.8,778.4,850,781.5z"/>
					<path class="st10" d="M884.9,845c-0.5,2.2-2.8,3.6-5,3s-3.6-2.8-3-5c0.5-2.2,2.8-3.6,5-3C884,840.5,885.4,842.8,884.9,845
						C884.9,845,884.9,845,884.9,845z"/>
					<path class="st9" d="M987.5,580.5c3.2,0,5.9,2.6,5.9,5.8c0,3.2-2.6,5.9-5.8,5.9c-3.2,0-5.9-2.6-5.9-5.8
						C981.7,583.2,984.3,580.5,987.5,580.5C987.5,580.5,987.5,580.5,987.5,580.5z"/>
					<path class="st9" d="M899.6,546.2c1.5,0,2.7,1.2,2.7,2.7s-1.2,2.7-2.7,2.7c-1.5,0-2.7-1.2-2.7-2.7
						C896.9,547.4,898.1,546.2,899.6,546.2C899.6,546.2,899.6,546.2,899.6,546.2z"/>
					<path class="st10" d="M1040.9,531.6c2.3,0,4.1,1.8,4.2,4.1s-1.8,4.1-4.1,4.2c-2.3,0-4.1-1.8-4.2-4.1
						C1036.8,533.5,1038.6,531.6,1040.9,531.6z"/>
					<path class="st10" d="M762.8,1002.8c4.2,0,7.7,3.4,7.7,7.6s-3.4,7.7-7.6,7.7c-4.2,0-7.7-3.4-7.7-7.6
						C755.2,1006.3,758.6,1002.9,762.8,1002.8C762.8,1002.8,762.8,1002.8,762.8,1002.8z"/>
					<path class="st9" d="M826.8,944.2c-2.3-2.3-2.3-6,0-8.3c2.3-2.3,6-2.3,8.3,0c2.3,2.3,2.3,6,0,8.3
						C832.8,946.4,829.1,946.4,826.8,944.2C826.8,944.2,826.8,944.2,826.8,944.2z"/>
					<path class="st10" d="M754.5,941c-1.6-1.6-1.6-4.2,0-5.8s4.2-1.6,5.8,0s1.6,4.2,0,5.8c0,0,0,0,0,0
						C758.7,942.6,756.1,942.6,754.5,941z"/>
					<path class="st9" d="M1031.4,993.9c-0.8,2.2-3.1,3.3-5.3,2.5c-2.2-0.8-3.3-3.1-2.5-5.3s3.1-3.3,5.3-2.5c0,0,0,0,0,0
						C1031,989.4,1032.1,991.8,1031.4,993.9z"/>
					<path class="st10" d="M957.8,1008.6c-0.8,2.2-3.1,3.3-5.3,2.5c-2.2-0.8-3.3-3.1-2.5-5.3c0.8-2.2,3.1-3.3,5.3-2.5c0,0,0,0,0,0
						C957.5,1004.1,958.6,1006.4,957.8,1008.6z"/>
					<path class="st10" d="M582.4,923.6c-0.8,2.1-3.1,3.2-5.2,2.5s-3.2-3.1-2.5-5.2c0.8-2.1,3.1-3.2,5.2-2.5
						C582.1,919.1,583.2,921.4,582.4,923.6C582.4,923.6,582.4,923.6,582.4,923.6z"/>
					<circle class="st9" cx="17.9" cy="274.6" r="5.8"/>
					<path class="st9" d="M58.6,186.9c0,1.5-1.2,2.7-2.7,2.7c-1.5,0-2.7-1.2-2.7-2.7c0-1.5,1.2-2.7,2.7-2.7h0
						C57.3,184.1,58.6,185.3,58.6,186.9C58.6,186.9,58.6,186.9,58.6,186.9z"/>
					<path class="st9" d="M136.7,289.8c0,2.3-1.8,4.1-4.1,4.1s-4.1-1.8-4.1-4.1c0-2.3,1.8-4.1,4.1-4.1
						C134.8,285.7,136.7,287.5,136.7,289.8C136.7,289.8,136.7,289.8,136.7,289.8z"/>
					<circle class="st10" cx="68.1" cy="328.2" r="4.1"/>
					<path class="st10" d="M155.2,208.5c0,5.1-4.1,9.3-9.3,9.3c-5.1,0-9.3-4.1-9.3-9.3s4.1-9.3,9.3-9.3c0,0,0,0,0,0
						C151.1,199.2,155.2,203.4,155.2,208.5z"/>
					<path class="st9" d="M316.9,146.5c0.8,3.1-1.1,6.3-4.3,7.1c-3.1,0.8-6.3-1.1-7.1-4.3c-0.8-3.1,1.1-6.3,4.3-7.1c0,0,0,0,0,0
						C313,141.5,316.1,143.4,316.9,146.5z"/>
					<path class="st10" d="M343.5,319.9c-2.2,0.5-4.4-0.9-4.9-3.1c-0.5-2.2,0.9-4.4,3.1-4.9c2.2-0.5,4.4,0.9,4.9,3.1c0,0,0,0,0,0
						C347.1,317.2,345.7,319.4,343.5,319.9z"/>
					<path class="st9" d="M168.8-3.1c1.8-1.4,4.4-1.2,5.8,0.6s1.2,4.4-0.6,5.8s-4.4,1.2-5.8-0.6c0,0,0,0,0,0
						C166.7,0.9,167-1.6,168.8-3.1z"/>
					<path class="st10" d="M239.1,23c1.8-1.4,4.4-1.2,5.8,0.6c1.4,1.8,1.2,4.4-0.6,5.8c-1.8,1.4-4.4,1.2-5.8-0.6
						C237,27,237.3,24.4,239.1,23C239.1,23,239.1,23,239.1,23z"/>
					<path class="st10" d="M93.8,33.5c4-3.2,9.8-2.6,13,1.4c3.2,4,2.6,9.8-1.4,13c-4,3.2-9.8,2.6-13-1.4c0,0,0,0,0,0
						C89.2,42.5,89.8,36.7,93.8,33.5z"/>
					<path class="st9" d="M614.5,255.2c-1.7-2.7-0.9-6.3,1.9-8c2.7-1.7,6.3-0.9,8,1.9c1.7,2.7,0.9,6.3-1.9,8c0,0,0,0,0,0
						C619.7,258.7,616.2,257.9,614.5,255.2z"/>
					<path class="st9" d="M630.7,348.1c-0.8-1.3-0.4-3,0.9-3.7c1.3-0.8,3-0.4,3.7,0.9c0.8,1.3,0.4,2.9-0.9,3.7
						C633.2,349.8,631.5,349.4,630.7,348.1z"/>
					<path class="st9" d="M735,243.9c-1.2-1.9-0.6-4.5,1.3-5.7c1.9-1.2,4.5-0.6,5.7,1.3c1.2,1.9,0.6,4.5-1.3,5.7c0,0,0,0,0,0
						C738.7,246.4,736.2,245.8,735,243.9C735,243.9,735,243.9,735,243.9z"/>
					<path class="st10" d="M769.7,177.4c-1.2-1.9-0.6-4.5,1.3-5.7c1.9-1.2,4.5-0.6,5.7,1.3c1.2,1.9,0.6,4.5-1.3,5.7c0,0,0,0,0,0
						C773.4,179.9,770.9,179.3,769.7,177.4z"/>
					<path class="st10" d="M591.2,43.3c-2.7-4.3-1.4-10.1,3-12.7c4.3-2.7,10.1-1.4,12.7,3s1.4,10.1-3,12.7c0,0,0,0,0,0
						C599.6,49,593.9,47.6,591.2,43.3C591.2,43.3,591.2,43.3,591.2,43.3z"/>
					<path class="st9" d="M455.1,355.2c-0.7,3.1-3.9,5.1-7,4.4c-3.1-0.7-5.1-3.9-4.4-7c0.7-3.1,3.9-5.1,7-4.4c0,0,0,0,0,0
						C453.9,349,455.8,352.1,455.1,355.2z"/>
					<path class="st10" d="M544,81.6c-0.5,2.2-2.8,3.6-5,3c-2.2-0.5-3.6-2.8-3-5c0.5-2.2,2.8-3.6,5-3
						C543.2,77.1,544.5,79.4,544,81.6C544,81.6,544,81.6,544,81.6z"/>
					<path class="st9" d="M431.9,517.9c-2.3-2.3-2.3-6,0-8.3c2.3-2.3,6-2.3,8.3,0c2.3,2.3,2.3,6,0,8.3
						C437.8,520.2,434.1,520.2,431.9,517.9C431.9,517.9,431.9,517.9,431.9,517.9z"/>
					<path class="st10" d="M359.5,514.7c-1.6-1.6-1.6-4.2,0-5.8c1.6-1.6,4.2-1.6,5.8,0c1.6,1.6,1.6,4.2,0,5.8c0,0,0,0,0,0
						C363.8,516.3,361.1,516.3,359.5,514.7z"/>
					<path class="st9" d="M994.6,323.5c-0.8,2.2-3.1,3.3-5.3,2.5c-2.2-0.8-3.3-3.1-2.5-5.3c0.8-2.2,3.1-3.3,5.3-2.5c0,0,0,0,0,0
						C994.2,319,995.4,321.4,994.6,323.5z"/>
					<path class="st10" d="M921,338.2c-0.8,2.2-3.1,3.3-5.3,2.5c-2.2-0.8-3.3-3.1-2.5-5.3c0.8-2.2,3.1-3.3,5.3-2.5c0,0,0,0,0,0
						C920.7,333.7,921.8,336,921,338.2z"/>
					<path class="st10" d="M232,368.8c-1.2,3.4-4.9,5.2-8.4,4c-3.4-1.2-5.2-4.9-4-8.4c1.2-3.4,4.9-5.2,8.4-4
						C231.4,361.7,233.2,365.4,232,368.8C232,368.8,232,368.8,232,368.8z"/>
					<path class="st9" d="M497.3,901.7c0.7-3.2,3.8-5.2,6.9-4.5c3.2,0.7,5.2,3.8,4.5,6.9c-0.7,3.2-3.8,5.2-6.9,4.5c0,0,0,0,0,0
						C498.6,908,496.6,904.9,497.3,901.7z"/>
					<path class="st9" d="M444.6,980c0.3-1.5,1.8-2.4,3.2-2.1c1.5,0.3,2.4,1.8,2.1,3.2s-1.8,2.4-3.2,2.1c0,0,0,0,0,0
						C445.2,982.9,444.3,981.5,444.6,980C444.6,980,444.6,980,444.6,980z"/>
					<path class="st9" d="M390.1,862.8c0.5-2.2,2.7-3.6,4.9-3.2s3.6,2.7,3.2,4.9c-0.5,2.2-2.7,3.6-4.9,3.2c0,0,0,0,0,0
						C391,867.2,389.6,865,390.1,862.8z"/>
					<path class="st10" d="M673.3,821.9c0.5-2.2,2.7-3.6,4.9-3.2c2.2,0.5,3.6,2.7,3.2,4.9c-0.5,2.2-2.7,3.6-4.9,3.2c0,0,0,0,0,0
						C674.2,826.3,672.8,824.1,673.3,821.9z"/>
					<path class="st10" d="M354.7,938.4c1.1-5,6-8.2,11-7.1s8.2,6,7.1,11c-1.1,5-6,8.2-11,7.1c0,0,0,0,0,0
						C356.8,948.3,353.6,943.4,354.7,938.4z"/>
					
						<ellipse transform="matrix(0.2095 -0.9778 0.9778 0.2095 -388.473 697.3011)" class="st9" cx="237" cy="588.9" rx="5.9" ry="5.9"/>
					<path class="st10" d="M266.1,677.7c-1.9,1.2-4.5,0.7-5.7-1.2c-1.2-1.9-0.7-4.5,1.2-5.7c1.9-1.2,4.5-0.7,5.7,1.2
						C268.6,673.9,268,676.5,266.1,677.7C266.1,677.7,266.1,677.7,266.1,677.7z"/>
					<path class="st9" d="M15.7,1016.7c1.1,1,1.1,2.8,0.1,3.9c-1,1.1-2.8,1.1-3.9,0.1c-1.1-1-1.1-2.8-0.1-3.9c0,0,0,0,0,0
						C12.8,1015.7,14.6,1015.7,15.7,1016.7C15.7,1016.7,15.7,1016.7,15.7,1016.7z"/>
					<path class="st10" d="M97.9,961.4c3.7,3.5,3.9,9.4,0.3,13.1c-3.5,3.7-9.4,3.9-13.1,0.3c-3.7-3.5-3.9-9.4-0.3-13.1c0,0,0,0,0,0
						C88.3,958.1,94.2,957.9,97.9,961.4z"/>
					<path class="st9" d="M183.6,964.7c-0.1-3.2,2.5-5.9,5.7-6c3.2-0.1,5.9,2.5,6,5.7c0.1,3.2-2.5,5.9-5.7,6
						C186.4,970.4,183.7,967.9,183.6,964.7C183.6,964.7,183.6,964.7,183.6,964.7z"/>
					<path class="st10" d="M133.6,912.3c-0.1-2.3,1.7-4.2,4-4.3c2.3-0.1,4.2,1.7,4.3,4c0.1,2.3-1.7,4.2-4,4.3c0,0,0,0,0,0
						C135.6,916.3,133.7,914.5,133.6,912.3z"/>
					<path class="st9" d="M92.8,731.4c1.4-2.9,4.9-4.1,7.8-2.7c2.9,1.4,4.1,4.9,2.7,7.8c-1.4,2.9-4.9,4.1-7.8,2.7c0,0,0,0,0,0
						C92.6,737.8,91.4,734.3,92.8,731.4z"/>
					<path class="st10" d="M72.2,662c1-2.1,3.5-2.9,5.5-1.9c2.1,1,2.9,3.5,1.9,5.5s-3.5,2.9-5.5,1.9c0,0,0,0,0,0
						C72.1,666.5,71.2,664,72.2,662C72.2,662,72.2,662,72.2,662z"/>
					<path class="st9" d="M1264.5,576.2c-3.2-0.3-5.5-3.2-5.2-6.4s3.2-5.5,6.4-5.2c3.2,0.3,5.5,3.2,5.2,6.4c0,0,0,0,0,0
						C1270.6,574.2,1267.7,576.5,1264.5,576.2z"/>
					<path class="st9" d="M1162.1,893.2c-0.7,3.1-3.9,5.1-7,4.4c-3.1-0.7-5.1-3.9-4.4-7c0.7-3.1,3.9-5.1,7-4.4c0,0,0,0,0,0
						C1160.9,887,1162.8,890.1,1162.1,893.2z"/>
					<path class="st10" d="M1251,619.6c-0.5,2.2-2.8,3.6-5,3c-2.2-0.5-3.6-2.8-3-5c0.5-2.2,2.8-3.6,5-3
						C1250.2,615.1,1251.5,617.4,1251,619.6C1251,619.6,1251,619.6,1251,619.6z"/>
					<path class="st10" d="M1199,151.8c-1.2,3.4-4.9,5.2-8.4,4c-3.4-1.2-5.2-4.9-4-8.4c1.2-3.4,4.9-5.2,8.4-4
						C1198.4,144.7,1200.2,148.4,1199,151.8C1199,151.8,1199,151.8,1199,151.8z"/>
					
						<ellipse transform="matrix(0.2095 -0.9778 0.9778 0.2095 587.8358 1466.5825)" class="st9" cx="1201" cy="369.7" rx="5.9" ry="5.9"/>
					<path class="st10" d="M1233.1,460.7c-1.9,1.2-4.5,0.7-5.7-1.2c-1.2-1.9-0.7-4.5,1.2-5.7c1.9-1.2,4.5-0.7,5.7,1.2
						C1235.6,456.9,1235,459.5,1233.1,460.7C1233.1,460.7,1233.1,460.7,1233.1,460.7z"/>
					<path class="st9" d="M1150.6,747.7c-0.1-3.2,2.5-5.9,5.7-6c3.2-0.1,5.9,2.5,6,5.7c0.1,3.2-2.5,5.9-5.7,6
						C1153.4,753.4,1150.7,750.9,1150.6,747.7C1150.6,747.7,1150.6,747.7,1150.6,747.7z"/>
					<path class="st10" d="M1100.6,695.3c-0.1-2.3,1.7-4.2,4-4.3c2.3-0.1,4.2,1.7,4.3,4s-1.7,4.2-4,4.3c0,0,0,0,0,0
						C1102.6,699.3,1100.7,697.5,1100.6,695.3z"/>
					<path class="st9" d="M1059.8,514.4c1.4-2.9,4.9-4.1,7.8-2.7c2.9,1.4,4.1,4.9,2.7,7.8s-4.9,4.1-7.8,2.7c0,0,0,0,0,0
						C1059.6,520.8,1058.4,517.3,1059.8,514.4z"/>
					<path class="st10" d="M1039.2,445c1-2.1,3.5-2.9,5.5-1.9s2.9,3.5,1.9,5.5c-1,2.1-3.5,2.9-5.5,1.9c0,0,0,0,0,0
						C1039.1,449.5,1038.2,447,1039.2,445C1039.2,445,1039.2,445,1039.2,445z"/>
					<path class="st10" d="M35.6,486.6c1.2-1.9,3.7-2.5,5.7-1.3c1.9,1.2,2.5,3.7,1.3,5.7c-1.2,1.9-3.7,2.5-5.7,1.3c0,0,0,0,0,0
						C35,491.1,34.4,488.6,35.6,486.6z"/>
					<path class="st10" d="M314.5,765.9c1.6-2.6,5.1-3.4,7.7-1.8c2.6,1.6,3.4,5.1,1.8,7.7c-1.6,2.6-5.1,3.4-7.7,1.8c0,0,0,0,0,0
						C313.7,771.9,312.8,768.5,314.5,765.9z"/>
					<path class="st9" d="M256.2,985.7c1.2-1.9,3.7-2.5,5.7-1.3c1.9,1.2,2.5,3.7,1.3,5.7c-1.2,1.9-3.7,2.5-5.7,1.3c0,0,0,0,0,0
						C255.6,990.2,255,987.7,256.2,985.7C256.2,985.7,256.2,985.7,256.2,985.7z"/>
					<path class="st10" d="M331.2,987c1.2-1.9,3.7-2.5,5.7-1.3c1.9,1.2,2.5,3.7,1.3,5.7c-1.2,1.9-3.7,2.5-5.7,1.3c0,0,0,0,0,0
						C330.6,991.4,330,988.9,331.2,987C331.2,987,331.2,987,331.2,987z"/>
					<path class="st9" d="M619.1,1004.9c2.9-1.4,6.4-0.2,7.8,2.8c1.4,2.9,0.2,6.4-2.8,7.8c-2.9,1.4-6.4,0.2-7.8-2.8c0,0,0,0,0,0
						C615,1009.8,616.2,1006.3,619.1,1004.9C619.1,1004.9,619.1,1004.9,619.1,1004.9z"/>
					<path class="st10" d="M229.8,840.3c2.1-1,4.5-0.1,5.5,2c1,2.1,0.1,4.5-2,5.5c-2.1,1-4.5,0.1-5.5-2
						C226.8,843.7,227.7,841.3,229.8,840.3C229.8,840.3,229.8,840.3,229.8,840.3z"/>
				</g>
				
					<ellipse transform="matrix(0.7071 -0.7071 0.7071 0.7071 -522.6942 340.6183)" class="st11" cx="149.8" cy="801.3" rx="58.1" ry="58.1"/>
				
					<ellipse transform="matrix(0.7071 -0.7071 0.7071 0.7071 -522.6512 340.6433)" class="st12" cx="149.9" cy="801.2" rx="53.9" ry="54"/>
				
					<ellipse transform="matrix(0.9996 -2.896841e-02 2.896841e-02 0.9996 -22.256 4.9885)" class="st13" cx="161" cy="770.6" rx="7" ry="7.6"/>
				<path class="st13" d="M146,792.5c-2,0.1-3.7-1.5-3.8-3.5c-0.1-2,1.5-3.7,3.5-3.8c2-0.1,3.7,1.5,3.8,3.5
					C149.6,790.7,148,792.4,146,792.5C146,792.5,146,792.5,146,792.5z"/>
				<path class="st13" d="M158.7,821.9c-4.6,0.1-8.4-4.2-8.6-9.8s3.4-10.1,8-10.2s8.4,4.2,8.6,9.8S163.3,821.8,158.7,821.9z"/>
				<path class="st13" d="M127.7,776c-1.9,0.1-3.5-1.5-3.6-3.4s1.5-3.5,3.4-3.6c1.9-0.1,3.5,1.5,3.6,3.4
					C131.1,774.4,129.6,776,127.7,776C127.7,776,127.7,776,127.7,776z"/>
				<path class="st13" d="M107.6,824.9c-3.4,0.1-6.3-3.8-6.4-8.8s2.5-9.1,5.9-9.2s6.3,3.8,6.4,8.8S111,824.8,107.6,824.9z"/>
				<path class="st13" d="M148.4,854c-7.2,0.2-13.3-4.9-13.5-11.5s5.5-12,12.8-12.2s13.3,4.9,13.5,11.5S155.6,853.8,148.4,854z"/>
				
					<ellipse transform="matrix(0.9996 -2.914287e-02 2.914287e-02 0.9996 -23.388 6.0332)" class="st13" cx="195.3" cy="805.4" rx="4.9" ry="5.5"/>
				<g class="st14">
					<path class="st15" d="M180.9,757.1c18.3,27.5,10.8,64.7-16.7,83c-10.3,6.8-22.4,10.3-34.7,10c-0.9,0-1.8-0.1-2.7-0.1
						c27.1,12.5,59.2,0.7,71.7-26.4C209.3,800,201.9,772.1,180.9,757.1L180.9,757.1z"/>
				</g>
				<path class="st16" d="M241.1,777.9c-3.6-7-19.3-9.1-41.6-6.8c1,1.4,1.7,2.9,2.3,4.4c13.2-1.3,22.2-0.4,24.1,3.2
					c4,7.7-26.7,24.6-68.7,37.8s-79.2,17.7-83.2,10.1c-2.1-4,4.7-10.2,18.2-17.4c-0.3-1.8-0.4-3.7-0.5-5.6
					c-22.1,11.6-33.4,22.9-29.3,30.7c6.4,12.2,51.6,9.6,100.9-6S247.6,790.2,241.1,777.9z"/>
				<circle class="st11" cx="1179.5" cy="909.5" r="72.5"/>
				
					<ellipse transform="matrix(0.2261 -0.9741 0.9741 0.2261 26.7881 1852.8264)" class="st12" cx="1179.5" cy="909.6" rx="67.3" ry="67.3"/>
				<path class="st13" d="M1194.6,880L1194.6,880c0,3.6,2.9,6.6,6.6,6.6h6.2c3.2,0,5.7,2.6,5.8,5.7c0,0,0,0,0,0l0,0
					c0,3.2-2.6,5.7-5.7,5.8c0,0,0,0,0,0h-17.5c-2.8,0-5,2.2-5,5l0,0c0,2.8,2.2,5,5,5h38.8c3.1,0,5.6,2.5,5.6,5.6l0,0
					c0,3.1-2.5,5.6-5.6,5.6h-12.8c-3.1,0-5.6,2.5-5.6,5.6l0,0c0,3.1,2.5,5.6,5.6,5.6h27.7c6.2-19.1,3.6-40-7.2-57h-35.2
					C1197.6,873.5,1194.6,876.4,1194.6,880z"/>
				<path class="st13" d="M1188.1,939.1L1188.1,939.1c0-3.6-2.9-6.6-6.6-6.6l0,0h-38.2c-2.8,0-5-2.2-5-5v-1.5c0-2.8,2.2-5,5-5h20.2
					c2.8,0,5-2.2,5-5l0,0c0-2.8-2.2-5-5-5h-40.3c-2.8,0-5-2.2-5-5v-1.2c0-2.8,2.2-5,5-5h21.2c3.1,0,5.6-2.5,5.6-5.6l0,0
					c0-3.1-2.5-5.6-5.6-5.6h-28.9c-6.2,19.1-3.6,40.1,7.2,57h58.8C1185.2,945.7,1188.1,942.8,1188.1,939.1
					C1188.1,939.2,1188.1,939.1,1188.1,939.1z"/>
				<g class="st14">
					<path class="st15" d="M1219.1,855.1c22.3,34.7,12.4,80.9-22.3,103.2c-13,8.4-28.2,12.5-43.6,11.8c-1.1,0-2.3-0.1-3.4-0.2
						c33.4,16.4,73.7,2.7,90.1-30.7C1254.4,909.9,1245.6,874.4,1219.1,855.1L1219.1,855.1z"/>
				</g>
				<g>
					
						<radialGradient id="SVGID_9_" cx="639.9938" cy="236.4133" r="228.6058" gradientTransform="matrix(1 0 0 -1 1 1254.71)" gradientUnits="userSpaceOnUse">
						<stop  offset="0" style="stop-color:#5BCBF5"/>
						<stop  offset="1" style="stop-color:#5ECBF4"/>
					</radialGradient>
					<path class="st17" d="M816,871.2c81.2,96.6,68.8,240.8-27.9,322.1S547.3,1262,466,1165.4s-68.8-240.8,27.9-322.1
						S734.7,774.6,816,871.2z"/>
				</g>
				
					<ellipse transform="matrix(0.7071 -0.7071 0.7071 0.7071 -532.3053 751.5112)" class="st18" cx="641" cy="1018.3" rx="202.6" ry="202.6"/>
				<path class="st19" d="M699.4,1126.1c-9.1-14.6-22.7-30.1-29.7-29.8c-3.5-0.3-8.2-7.9-10.4-3.6c-2.8,6.2-6.1,2-9.4-0.9
					c-4-2.7-4.9-7.3-5.9-12.1c-6.7,1.5-13.2,2.5-15.5,1.3c-5-2.6-6.2-5.7-6.2-5.7s-20.8,10-25.6,7.9s-22.4,24.1-27,23.5
					s-1.8-1.8-5.1-8.7s-3.9-4.2-10.5-3.4s-9.5-4.1-9.7-9.3s-10.8-1.6-13.2,1.6s-6.3,12-8.2,11.1s-9.4-19.5-9.4-19.5l3.6-11.7
					c0,0,15.6-11.7,18.4-10.6s17.7,9.8,19.4,7.9c2-2.8,3.2-6,3.6-9.4c0-2.3-4.7,4-7.1-7.3c-1.4-7-1-14.2,1.3-20.9
					c0,0-1.7-7.2-2.2-9.2s1.3-17,4.3-19.1s9.7-9.8,10.9-13.8s-1.5-5-2.5-9s1,1.6-0.9-4s-13.3-8.3-16.4-10s-15.6,1-19.9,3.2
					s-11.2,13.2-11.2,13.2s4.8,8.2,2.8,9.5s-11.5,1.9-11.5,1.9s-8.4,1.3-7.6-4.6s-0.5-8.1,2.5-10.2s6-6.5,6-6.5s1.3-0.2,1.7-4.3
					s-1.8-6.4,2.6-8c4.4-1.6,6.1-3.5,8.7-1.5s6.3-33.6,6.2-37.3s-12.2,10.3-26.2-7.8c-10.9-14.1-34.6,61.1-36.4,61.6
					S444,982.4,444,982.4l-2.7,1.3c-1.1,5.9-1.9,11.8-2.3,17.7c0.6-0.2,0.5-0.1,1.3-0.2c3.3-0.3,6.5-3.3,7.4,0.7s0.7,4.8,0.5,10.4
					s-0.4,2.5-1.1,9.9c-0.4,4.4,0.5,8.9,2.5,12.8l-2.4,18.6c0,0,8.2,12.7,8.6,14.7s11.5,8.8,11.5,8.8l7.4,18.6c0,0,9.2,12,10.5,7.2
					s1.3-12.4-1.5-13.5s1.7-0.4,5.8,2.8s8.2,12.7,9.9,16.9s15.5,3.7,23.4,2.8s14-6,22.5-1.2s7.3-6.7,12.7-1.2s12.5,8.1,18,6.6
					s9.5-11.3,13.9-5.1s-9.2,28.6,1,37.6c4.9,4.3,14,6.9,22.4,8.7c23.4-1.8,43.8,11,60.8,29.5c1.5,1.3,3.2,0.2,5.2-1.3
					c1.8-2.7,3.3-4.8,3.8-5.6c1.8-2.8,9.6-26.7,8.5-29.7s6.1-13.5,7.6-14.5C699.9,1135.5,699.7,1131.7,699.4,1126.1z"/>
				<path class="st19" d="M549,1076.5c2.9,3.4,6.3,1.9,8.4,2.8s-1-3.9,1.8-5.4s12.7-7.9,13.2-4.1s3.5-3.4,6.1-4s0.8-3.5-1.6-2.6
					s-5.7-0.7-8.4,0.3S549,1076.5,549,1076.5z"/>
				<path class="st19" d="M584.5,1071.7c-1.9,1.1,2.2,1.2,5.5,0.6s2.8-2.6,3.9-6.8s-1.6-7.4-3.6-5.8S589.3,1068.8,584.5,1071.7z"/>
				<path class="st20" d="M534.6,861.6c4.3,1,6.9-6.8,15,3.9s5.2,15.7,11.8,19s3.4,12.3,1.7,12.7s-7.1,2.4-10.1,3.6
					s-11.1,3.5-13.4-0.2s-1.3-6.8-6.5-10.6s-6.6-2.1-10.8-2.4s-4.5-4.7-8.9-1s-13.1,12.6-14,7s0-7.7,2-12.8s-1.9,0.5,2-5.2
					s1.5-5.6,6.7-7.5C515.1,866.1,534.6,861.6,534.6,861.6z"/>
				<path class="st19" d="M646.3,824c0.7,1.6,4.3,2.5,0.8,4s-5.4,3.2-5.8,4.1s-2.3,1.4-3.6,3.4s-1.5,2.1-3.8,4l-2.3,2l-1.3,1.4
					c-1.2,0.2-2.5,0-3.5-0.7c-1.3-1.1-1.7-3.2-2.8-2.7s-3.9,3.6-3.6,5s1.3,3.6,2.7,3.8s5,0,2.6,1.2s-5.1,3.2-5.7,5.5
					s-1.2,6.7-1.2,6.8s-4.2,4.3-3.4,5.4s2.1,2.6,0.6,4.2s-3.2,4.1-5.2,6.4s-1,3.1-3.4,5.6s-1.9,4,0.8,2.3s7.6-3.4,9.2-1.7
					c1.8,1.9,2.9,4.3,3.4,6.8c0.4,1.9-4.2,4.4-6.4,6.4s-7.4,5.1-8.6,7.6s2.4,6.6,4.5,8.1c1.6,1,2.3,2.9,1.9,4.7
					c-0.2,1.4,1.1,3.6,2.8,3.7s4,1.5,5,1s2.7-3.6,4.6-3.3s5,2.3,5,1.1s-1.5-4.9,0-5.1s3.1-3.1,4.7-4.9s0.7-4.9,1.5-7.5
					s-0.1-1.8-1.8-2.6s-0.6-4.4-0.5-7.1s3.6-3.5,2.8-5.8s-3-5.3-1.4-6.4s4.6-1.9,6-3s2.3-5.9,2.7-7s3.4-3.3,5.4-1.8s7.2,1,8.3,0.8
					s7.6-2.8,8.9-2.9c2.2,0.2,4.3,1,6.1,2.3c1.9,1.4,6.1,1.5,4.9-0.2s-7.5-4.7-6-5.6c1-0.7,1.9-1.7,2.5-2.9c-2.7,0.1-5.4,0.5-8,0.9
					c-1.9,0.5-5.5,1.4-8.4,0.4s-6.1,1-7.7-1.1s2.1-3.2,5-2.9s8.7-0.8,11.3-0.5s5.3-0.9,7.5,0.5s5.9,2,7.2,2.3s7.9,6.9,9.5,7.5
					s2-5.9,2.1-7.5s1.5-3.6,0.1-5.5s-5-1-6.4-1s0.8-2.9,0.9-4.5s0.6-4.5,2.5-3.9s6.2,5.8,7.4,6.4s6.2-1.5,8-1s5.4-1.9,5.4-3
					s4-2.6,5-3.1s2.6-3,3.8-4.7s1.4-4.2,3.8-1.3s6,7.7,6.1,11.5s1.9,4.3,0,6c-0.9,0.6-1.5,1.4-2,2.4c-1.7-0.6-3.4-0.8-4.2,0.5
					c-1.7,2.6-4,4.6-5.8,4.1s-6,3.9-8.6,6.1s-6.3,2.2-8.6,3.4s0.8,6.7,0.9,10.7s-6.1,3-7.8,4.5s-7.7,1.4-7.7,1.4s-4.7,1.3-6.1,2.4
					s-6.7,0.5-7.5,1.2s-4.7,0.5-3.9-1.8s5.8-3.2,0-6.8s-10.2,1.9-11,3.8s-10.7,10-11.5,10.7s-4.5,7.8-5.5,10.3s-3.2,6.3-3.6,7.5
					s-5.6,3.3-6.4,6c-1.1,3.6-1.3,8-1.9,8.5s-1,3.7,0.6,8.4s5.5,6.7,4.3,9.8s-4.3,9.2-4.3,12.6s4.8,12.2,5.4,17.2s5,6.3,7,7.9
					s6.4,4.2,7.1,9.6s2.3,7,1.5,8.1s2,0.4,4.4,2.5s2.3,6.5,7.9,5.4s9.1-3.9,12.5-1.8s12.3,5.9,12.3,5.9s6.8,0.8,10,0.9s3-1.3,2-3.3
					s1.2-4.3,3.9-6.7s5.3-3.4,7.7-6.3s1-8.8,1.6-10.2s4.2-5.6,8.3-5.9s5.9,2.7,8.7,3.2s4.3-2.5,4.8-5.8s0.2-1.8,3.5-2.3
					s5.5,0.2,5.2,4.1s3.6,6.2,5,10.6s3.7,2.3,6.9,1.8s11.9,7,14.2,7.5s4.1,6.3,7.4,7.8s4.9,2.5,4.4,5c-0.8,3.7,0,7.6,2.1,10.8
					c2.7,4.1,5.5,5.9,7.1,6.6s5.8,2.5,7.5,3s6.2,0,7.5,1.7s0.6,6.5,2,6.7s2.7,1.1,4.8,0.9c1.5,0,2.9,0.6,3.8,1.7
					c0.7,0.4,1.4,1.1,1.8,1.8c0.8,1.3,1.4,1.9,3.2,1.1s2.9-1.7,3.5-3c1.4-2.7,3.2-5.2,5.4-7.3c2.1-1.7,5-4.1,6.7-7.2s3.3-9.4,4-11.6
					c0.7-2.2,2.4-6.7,1.5-7.8s-3.7-1.6-2.8-3.6s5.1-6.5,4.7-7.8s-3.8-4.9-4.7-5.6s-0.5-3.6-0.2-6.9s2.5-8,2.3-9.5
					c-4.3-28.6-20.5-63.5-40.3-88.3c-39.8-50-93.2-74.2-149.2-76.7c-1,0.9-2.7,1.4-4.1,2.4C644.6,819.7,645.6,822.4,646.3,824z"/>
				<g>
					<path class="st21" d="M816.5,917.1c-0.5,78.2-35.3,152.1-95.2,202.4c-54.1,45.5-132.3,67.6-197.7,64c3.7,2.9,11.3,7.5,15.4,9.9
						c73.9,43,166.9,35,232.3-20C847.8,1109.2,864.8,1000.6,816.5,917.1z"/>
				</g>
				<path class="st19" d="M598.3,830.8c-2.7,3-3.5,10-3.1,10.6s3.6,1.4,3.6,2.1s2.9,2,5.4,0.9s5.6-4.1,5-5.1s0.3-5,1.6-4
					s5,1.6,5.5,2.8s1.7,1.8,2.8,0.6s6.5-8,6.5-8s1.4-2.5-0.1-3.3s-0.4-4.5-0.3-5.3s0.3-3.9-2.4-2.5s-4.6,2.7-3.8-0.7
					c0.4-1.5,0.3-1.5,1.2-2.3c1.5-0.1-7.9,0.7-14.9,2.1c-0.1,0.7-0.3,1.4-0.6,2C603.1,824.4,600.9,827.8,598.3,830.8z"/>
				<path class="st19" d="M578,869.9c0.8-1.2,2.6-1,2.8-2.8s0.7-3.7,2.7-4.2s5.1-4.3,7.2-4.3s-1.2,6.5,0.3,6.2s5.7,1.2,7.8,0.5
					s5.5-0.4,6.7,0.8s0.5,5.2-1,6.5s-5.1,2.9-6.5,4.2s-0.7,3.5-1.9,3.9s-1.1-1.9-1.1-1.9s-4.7,5-5.2,3.5s1-8.8,1.9-10.7
					s-3.4,0.6-5.6,1.5s-4.8,0-6.1-0.2S576.9,871.6,578,869.9z"/>
			</g>
		</g>
	</g>
</g>
<g>
	<path class="st22" d="M110.6,150c-0.6,0-3.4,13.8,13.8,17.5c18.3,3.9,35.2-10.2,41.6-23.8c0,0-0.4,11-12.2,20.3
		c-8.7,6.9-27.2,13.4-41.5,3.6c0,0,8.4,10.4,21.7,9.7c0,0-18.9,3.9-27.2-5.7C98.6,161.9,110.6,150,110.6,150z"/>
	<g>
		<path class="st22" d="M131.6,146.8c-3.1,1.3-4.8,3.8-4,5.7c0.8,1.9,4.1,2.7,7.4,1.6c3.7-1.2,5.9-4,4.8-6.2
			C138.6,145.8,134.9,145.4,131.6,146.8z"/>
		<path class="st23" d="M129.3,143c-6.3,2.6-9.8,7.7-8.1,11.7c1.7,4,8.3,5.7,15.2,3.5c7.4-2.4,12-8.2,9.6-12.7
			C143.7,141.1,136.1,140.2,129.3,143z M135.5,155.5c-4.5,1.5-8.9,0.4-10-2.3c-1.1-2.6,1.2-5.9,5.3-7.7c4.4-1.9,9.5-1.2,10.9,1.6
			C143.3,150.1,140.3,153.9,135.5,155.5z"/>
		<path class="st23" d="M161.7,137.7c-4.3-18-32.4-10.8-38.7-8.2c0,0,33.4-5.8,28.7,11c0,0-4.6-11.6-27.4-6.6
			c-20.4,4.5-27,17.4-25.5,32.5c0,0,3.2-25.9,29.1-29c0,0-17.3,5.6-14,18.5c2.3,8.8,16.4,10.2,27.9,5.9
			C141.8,161.9,165.5,153.6,161.7,137.7z M137,160c-8.5,2.7-16.6,0.7-18.7-4.3c-2-4.8,2.3-11.1,10-14.4c8.3-3.5,17.7-2.3,20.5,3.1
			C151.7,149.9,146.2,157.1,137,160z"/>
	</g>
</g>
<g>
	<path class="st22" d="M1163.3,696.5c-0.5-0.3-9.7,10.4,3.6,22c14.1,12.3,35.7,8.2,48-0.6c0,0-5.7,9.4-20.5,11.8
		c-11,1.8-30.3-1.5-38-17c0,0,2.3,13.1,14.3,19c0,0-18.4-5.7-21-18.2C1147.1,701.1,1163.3,696.5,1163.3,696.5z"/>
	<g>
		<path class="st22" d="M1183.2,703.9c-3.3-0.4-6.1,0.9-6.3,3c-0.2,2.1,2.2,4.4,5.7,5c3.8,0.7,7.1-0.6,7.2-3.1
			C1189.9,706.5,1186.8,704.3,1183.2,703.9z"/>
		<path class="st23" d="M1183.1,699.5c-6.8-0.8-12.3,2-12.8,6.2c-0.5,4.4,4.5,9,11.6,10.5c7.7,1.5,14.4-1.4,14.6-6.4
			C1196.6,704.9,1190.4,700.3,1183.1,699.5z M1182.4,713.4c-4.7-0.9-7.9-4-7.6-6.9c0.3-2.8,3.9-4.6,8.4-4.1c4.8,0.5,8.9,3.5,8.8,6.7
			C1191.9,712.5,1187.4,714.4,1182.4,713.4z"/>
		<path class="st23" d="M1214,710.7c5-17.8-23-25.2-29.8-25.9c0,0,32.1,11.2,19.7,23.6c0,0,1.6-12.4-20.8-19.1
			c-20-6-32.1,2.1-38.1,16c0,0,15.4-21,39.5-11.2c0,0-17.9-3.5-21.2,9.4c-2.3,8.8,9.4,16.9,21.5,18.7
			C1184.8,722.1,1209.6,726.3,1214,710.7z M1181.6,718.1c-8.7-1.7-14.9-7.5-14.3-12.9c0.6-5.2,7.4-8.6,15.8-7.7
			c9,1,16.6,6.6,16.5,12.6C1199.3,716.4,1191,720,1181.6,718.1z"/>
	</g>
</g>
</svg>
