<?xml version="1.0" encoding="utf-8"?>
<!-- Generator: Adobe Illustrator 22.0.1, SVG Export Plug-In . SVG Version: 6.00 Build 0)  -->
<svg version="1.1" id="ArcadeBG" xmlns="http://www.w3.org/2000/svg" xmlns:xlink="http://www.w3.org/1999/xlink" x="0px" y="0px"
	 viewBox="0 0 1366 754.8" style="enable-background:new 0 0 1366 754.8;" xml:space="preserve">
<style type="text/css">
	.st0{opacity:0.84;fill:url(#Floor_1_);}
	.st1{fill:#CCCCCC;}
	.st2{fill:#FF5F3F;}
	.st3{fill:#D65035;}
	.st4{fill:#B3432C;}
	.st5{fill:#D6D664;}
	.st6{fill:#BFBF59;}
	.st7{fill:#FFFF77;}
	.st8{fill:#333333;}
	.st9{fill:#857DFF;}
	.st10{fill:#FFFFFF;}
	.st11{fill:#0D80D9;}
	.st12{fill:#0F97FF;}
	.st13{fill:#B5B5B5;}
	.st14{opacity:0.15;fill:#503B60;}
	.st15{fill:#3BA0DD;}
	.st16{fill:#1C8DC3;}
	.st17{fill:#00397F;}
	.st18{fill:#5E5091;}
	.st19{fill:#473C6D;}
	.st20{fill:#A17BBF;}
	.st21{opacity:0.26;fill:#503B60;}
	.st22{fill:#007974;}
	.st23{fill:#B4CE54;}
	.st24{fill:#FFF356;}
	.st25{fill:#00ABC7;}
	.st26{fill:#EEEFDA;}
	.st27{fill:#F05643;}
	.st28{font-family:'FORQUE';}
	.st29{font-size:48px;}
</style>
<linearGradient id="Floor_1_" gradientUnits="userSpaceOnUse" x1="683.5" y1="753.7804" x2="683.5" y2="286.7804">
	<stop  offset="0" style="stop-color:#A17BBF"/>
	<stop  offset="2.105129e-02" style="stop-color:#9C78BB"/>
	<stop  offset="0.1561" style="stop-color:#8267A2"/>
	<stop  offset="0.3048" style="stop-color:#6D5A8F"/>
	<stop  offset="0.4721" style="stop-color:#5F5182"/>
	<stop  offset="0.6733" style="stop-color:#564B7A"/>
	<stop  offset="1" style="stop-color:#544A77"/>
</linearGradient>
<rect id="Floor" y="286.8" class="st0" width="1367" height="467"/>
<rect id="Wall" y="-0.2" class="st1" width="1367" height="368"/>
<g id="CAHGame">
	<g>
		<rect x="388.5" y="97.8" class="st2" width="267.9" height="61"/>
		<polygon class="st3" points="655.5,147.8 389.4,147.8 412,200 632.9,200 		"/>
		<polygon class="st4" points="637.7,360.1 407.2,360.1 408.8,189.2 636.1,189.2 		"/>
		<polygon class="st3" points="407.8,350.4 637.1,350.4 656.4,415.5 388.5,415.5 		"/>
		<polygon class="st5" points="407.2,342.8 401.1,350.4 377.8,404.2 384.3,411.6 393.9,404.2 413.2,350.4 		"/>
		<polygon class="st6" points="404.1,182.7 402.7,189.2 401.1,350.4 413.2,350.4 414.8,189.2 		"/>
		<polygon class="st5" points="643.8,350.4 637.7,343.5 631.7,350.4 651,404.2 659.1,412 667.1,404.2 		"/>
		<polygon class="st6" points="642.2,189.2 640.4,182.7 630.1,189.2 631.7,350.4 643.8,350.4 		"/>
		<polygon class="st5" points="659.2,140.6 652.1,147.8 630.1,189.2 642.2,189.2 664.2,147.8 		"/>
		<rect x="652.1" y="97.8" class="st7" width="12.1" height="50"/>
		<polygon class="st5" points="392.8,147.8 385,143.7 380.7,147.8 402.7,189.2 414.8,189.2 		"/>
		<rect x="380.7" y="97.8" class="st7" width="12.1" height="50"/>
		<rect x="388.5" y="404.2" class="st2" width="267.9" height="95.7"/>
		<path id="CAHScreen_6_" class="st8" d="M619.5,213.4c-0.1-7.4-6.1-13.4-13.5-13.4H438.9c-7.4,0-13.4,6-13.5,13.4L424.3,326
			c-0.1,7.5,6,13.6,13.5,13.6h169.4c7.5,0,13.6-6.1,13.5-13.6L619.5,213.4z"/>
		<path class="st4" d="M476.1,387.6c0,3.2-6.5,5.8-14.6,5.8c-8.1,0-14.6-2.6-14.6-5.8v-3.8h29.2V387.6z"/>
		<path class="st6" d="M476.1,384.4c0,3.2-6.5,5.8-14.6,5.8c-8.1,0-14.6-2.6-14.6-5.8v-3.8h29.2V384.4z"/>
		<ellipse class="st7" cx="461.5" cy="380.6" rx="14.6" ry="5.8"/>
		<rect x="459" y="357.7" class="st9" width="4.9" height="23.2"/>
		<circle class="st10" cx="461.5" cy="352.4" r="11.3"/>
		<path class="st4" d="M527.3,370c0,2.8-5.7,5.1-12.8,5.1c-7.1,0-12.8-2.3-12.8-5.1v-3.3h25.6V370z"/>
		<path class="st11" d="M527.3,367.2c0,2.8-5.7,5.1-12.8,5.1c-7.1,0-12.8-2.3-12.8-5.1v-3.3h25.6V367.2z"/>
		<ellipse class="st12" cx="514.6" cy="363.9" rx="12.8" ry="5.1"/>
		<path class="st11" d="M524.7,363c0,2.2-4.6,4.1-10.2,4.1c-5.6,0-10.2-1.8-10.2-4.1v-2.8h20.4V363z"/>
		<ellipse class="st12" cx="514.6" cy="360.1" rx="10.2" ry="4.1"/>
		<path class="st4" d="M561.7,370c0,2.8-5.7,5.1-12.8,5.1c-7.1,0-12.8-2.3-12.8-5.1v-3.3h25.6V370z"/>
		<path class="st6" d="M561.7,367.2c0,2.8-5.7,5.1-12.8,5.1c-7.1,0-12.8-2.3-12.8-5.1v-3.3h25.6V367.2z"/>
		<ellipse class="st7" cx="549" cy="363.9" rx="12.8" ry="5.1"/>
		<path class="st6" d="M559.2,363c0,2.2-4.6,4.1-10.2,4.1c-5.6,0-10.2-1.8-10.2-4.1v-2.8h20.4V363z"/>
		<ellipse class="st7" cx="549" cy="360.1" rx="10.2" ry="4.1"/>
		<path class="st4" d="M596.2,370c0,2.8-5.7,5.1-12.8,5.1c-7.1,0-12.8-2.3-12.8-5.1v-3.3h25.6V370z"/>
		<path class="st11" d="M596.2,367.2c0,2.8-5.7,5.1-12.8,5.1c-7.1,0-12.8-2.3-12.8-5.1v-3.3h25.6V367.2z"/>
		<ellipse class="st12" cx="583.4" cy="363.9" rx="12.8" ry="5.1"/>
		<path class="st11" d="M593.6,363c0,2.2-4.6,4.1-10.2,4.1s-10.2-1.8-10.2-4.1v-2.8h20.4V363z"/>
		<ellipse class="st12" cx="583.4" cy="360.1" rx="10.2" ry="4.1"/>
		<path class="st4" d="M545.8,391.8c0,2.8-5.7,5.1-12.8,5.1c-7.1,0-12.8-2.3-12.8-5.1v-3.3h25.6V391.8z"/>
		<path class="st6" d="M545.8,389.1c0,2.8-5.7,5.1-12.8,5.1c-7.1,0-12.8-2.3-12.8-5.1v-3.3h25.6V389.1z"/>
		<ellipse class="st7" cx="533" cy="385.8" rx="12.8" ry="5.1"/>
		<path class="st6" d="M543.2,384.8c0,2.2-4.6,4.1-10.2,4.1c-5.6,0-10.2-1.8-10.2-4.1V382h20.4V384.8z"/>
		<ellipse class="st7" cx="533" cy="382" rx="10.2" ry="4.1"/>
		<path class="st4" d="M580.2,391.8c0,2.8-5.7,5.1-12.8,5.1c-7.1,0-12.8-2.3-12.8-5.1v-3.3h25.6V391.8z"/>
		<path class="st11" d="M580.2,389.1c0,2.8-5.7,5.1-12.8,5.1c-7.1,0-12.8-2.3-12.8-5.1v-3.3h25.6V389.1z"/>
		<ellipse class="st12" cx="567.4" cy="385.8" rx="12.8" ry="5.1"/>
		<path class="st11" d="M577.6,384.8c0,2.2-4.6,4.1-10.2,4.1c-5.6,0-10.2-1.8-10.2-4.1V382h20.4V384.8z"/>
		<ellipse class="st12" cx="567.4" cy="382" rx="10.2" ry="4.1"/>
		<path class="st4" d="M614.6,391.8c0,2.8-5.7,5.1-12.8,5.1s-12.8-2.3-12.8-5.1v-3.3h25.6V391.8z"/>
		<path class="st6" d="M614.6,389.1c0,2.8-5.7,5.1-12.8,5.1s-12.8-2.3-12.8-5.1v-3.3h25.6V389.1z"/>
		<ellipse class="st7" cx="601.8" cy="385.8" rx="12.8" ry="5.1"/>
		<path class="st6" d="M612,384.8c0,2.2-4.6,4.1-10.2,4.1c-5.6,0-10.2-1.8-10.2-4.1V382H612V384.8z"/>
		<ellipse class="st7" cx="601.8" cy="382" rx="10.2" ry="4.1"/>
		<rect x="651" y="404.2" class="st7" width="16.1" height="95.7"/>
		<rect x="377.8" y="404.2" class="st7" width="16.1" height="95.7"/>
		<path class="st8" d="M542.6,416.1h-40.3c-2.5,0-4.5,2-4.5,4.5v46.1c0,2.5,2,4.5,4.5,4.5h40.3c2.5,0,4.5-2,4.5-4.5v-46.1
			C547.1,418.1,545.1,416.1,542.6,416.1z"/>
		<path class="st13" d="M505.2,421.8c0,1-0.8,1.7-1.7,1.7c-1,0-1.7-0.8-1.7-1.7c0-1,0.8-1.7,1.7-1.7
			C504.5,420,505.2,420.8,505.2,421.8z"/>
		<circle class="st13" cx="541.4" cy="421.8" r="1.7"/>
		<path class="st13" d="M505.2,465.4c0-1-0.8-1.7-1.7-1.7c-1,0-1.7,0.8-1.7,1.7c0,1,0.8,1.7,1.7,1.7
			C504.5,467.1,505.2,466.4,505.2,465.4z"/>
		<circle class="st13" cx="541.4" cy="465.4" r="1.7"/>
		<rect x="515.2" y="434.8" class="st13" width="14.4" height="17.6"/>
		<rect x="518.4" y="438.1" class="st8" width="2.4" height="10.9"/>
		<path id="Shadow_10_" class="st14" d="M1001,521.8H374c-6.6,0-12-5.4-12-12v-110c0-6.6,5.4-12,12-12h627c6.6,0,12,5.4,12,12v110
			C1013,516.4,1007.6,521.8,1001,521.8z"/>
	</g>
</g>
<g id="MemoryGame">
	<g>
		<rect x="715.8" y="97.8" class="st15" width="267.9" height="61"/>
		<polygon class="st16" points="982.8,147.8 716.8,147.8 739.3,200 960.3,200 		"/>
		<polygon class="st17" points="965.1,360.1 734.5,360.1 736.2,189.2 963.4,189.2 		"/>
		<polygon class="st16" points="735.2,350.4 964.4,350.4 983.7,415.5 715.8,415.5 		"/>
		<polygon class="st18" points="734.5,342.8 728.5,350.4 705.1,404.2 711.7,411.6 721.2,404.2 740.6,350.4 		"/>
		<polygon class="st19" points="731.5,182.7 730.1,189.2 728.5,350.4 740.6,350.4 742.2,189.2 		"/>
		<polygon class="st18" points="971.1,350.4 965.1,343.5 959,350.4 978.3,404.2 986.4,412 994.5,404.2 		"/>
		<polygon class="st19" points="969.5,189.2 967.7,182.7 957.4,189.2 959,350.4 971.1,350.4 		"/>
		<polygon class="st18" points="986.5,140.6 979.4,147.8 957.4,189.2 969.5,189.2 991.5,147.8 		"/>
		<rect x="979.4" y="97.8" class="st20" width="12.1" height="50"/>
		<polygon class="st18" points="720.2,147.8 712.3,143.7 708.1,147.8 730.1,189.2 742.2,189.2 		"/>
		<rect x="708.1" y="97.8" class="st20" width="12.1" height="50"/>
		<rect x="715.8" y="404.2" class="st15" width="267.9" height="95.7"/>
		<path id="MemoryScreen_6_" class="st8" d="M946.9,213.4c-0.1-7.4-6.1-13.4-13.5-13.4H766.2c-7.4,0-13.4,6-13.5,13.4L751.6,326
			c-0.1,7.5,6,13.6,13.5,13.6h169.4c7.5,0,13.6-6.1,13.5-13.6L946.9,213.4z"/>
		<path class="st17" d="M803.4,387.6c0,3.2-6.5,5.8-14.6,5.8s-14.6-2.6-14.6-5.8v-3.8h29.2V387.6z"/>
		<path class="st6" d="M803.4,384.4c0,3.2-6.5,5.8-14.6,5.8s-14.6-2.6-14.6-5.8v-3.8h29.2V384.4z"/>
		<ellipse class="st7" cx="788.8" cy="380.6" rx="14.6" ry="5.8"/>
		<rect x="786.4" y="357.7" class="st9" width="4.9" height="23.2"/>
		<circle class="st10" cx="788.8" cy="352.4" r="11.3"/>
		<path class="st17" d="M854.7,370c0,2.8-5.7,5.1-12.8,5.1c-7.1,0-12.8-2.3-12.8-5.1v-3.3h25.6V370z"/>
		<path class="st11" d="M854.7,367.2c0,2.8-5.7,5.1-12.8,5.1c-7.1,0-12.8-2.3-12.8-5.1v-3.3h25.6V367.2z"/>
		<ellipse class="st12" cx="841.9" cy="363.9" rx="12.8" ry="5.1"/>
		<path class="st11" d="M852.1,363c0,2.2-4.6,4.1-10.2,4.1c-5.6,0-10.2-1.8-10.2-4.1v-2.8h20.4V363z"/>
		<ellipse class="st12" cx="841.9" cy="360.1" rx="10.2" ry="4.1"/>
		<path class="st17" d="M889.1,370c0,2.8-5.7,5.1-12.8,5.1c-7.1,0-12.8-2.3-12.8-5.1v-3.3h25.6V370z"/>
		<path class="st6" d="M889.1,367.2c0,2.8-5.7,5.1-12.8,5.1c-7.1,0-12.8-2.3-12.8-5.1v-3.3h25.6V367.2z"/>
		<ellipse class="st7" cx="876.3" cy="363.9" rx="12.8" ry="5.1"/>
		<path class="st6" d="M886.5,363c0,2.2-4.6,4.1-10.2,4.1c-5.6,0-10.2-1.8-10.2-4.1v-2.8h20.4V363z"/>
		<ellipse class="st7" cx="876.3" cy="360.1" rx="10.2" ry="4.1"/>
		<path class="st17" d="M923.5,370c0,2.8-5.7,5.1-12.8,5.1s-12.8-2.3-12.8-5.1v-3.3h25.6V370z"/>
		<path class="st11" d="M923.5,367.2c0,2.8-5.7,5.1-12.8,5.1s-12.8-2.3-12.8-5.1v-3.3h25.6V367.2z"/>
		<ellipse class="st12" cx="910.7" cy="363.9" rx="12.8" ry="5.1"/>
		<path class="st11" d="M920.9,363c0,2.2-4.6,4.1-10.2,4.1s-10.2-1.8-10.2-4.1v-2.8h20.4V363z"/>
		<ellipse class="st12" cx="910.7" cy="360.1" rx="10.2" ry="4.1"/>
		<path class="st17" d="M873.1,391.8c0,2.8-5.7,5.1-12.8,5.1c-7.1,0-12.8-2.3-12.8-5.1v-3.3h25.6V391.8z"/>
		<path class="st6" d="M873.1,389.1c0,2.8-5.7,5.1-12.8,5.1c-7.1,0-12.8-2.3-12.8-5.1v-3.3h25.6V389.1z"/>
		<ellipse class="st7" cx="860.4" cy="385.8" rx="12.8" ry="5.1"/>
		<path class="st6" d="M870.6,384.8c0,2.2-4.6,4.1-10.2,4.1c-5.6,0-10.2-1.8-10.2-4.1V382h20.4V384.8z"/>
		<ellipse class="st7" cx="860.4" cy="382" rx="10.2" ry="4.1"/>
		<path class="st17" d="M907.6,391.8c0,2.8-5.7,5.1-12.8,5.1c-7.1,0-12.8-2.3-12.8-5.1v-3.3h25.6V391.8z"/>
		<path class="st11" d="M907.6,389.1c0,2.8-5.7,5.1-12.8,5.1c-7.1,0-12.8-2.3-12.8-5.1v-3.3h25.6V389.1z"/>
		<ellipse class="st12" cx="894.8" cy="385.8" rx="12.8" ry="5.1"/>
		<path class="st11" d="M905,384.8c0,2.2-4.6,4.1-10.2,4.1c-5.6,0-10.2-1.8-10.2-4.1V382H905V384.8z"/>
		<ellipse class="st12" cx="894.8" cy="382" rx="10.2" ry="4.1"/>
		<path class="st17" d="M942,391.8c0,2.8-5.7,5.1-12.8,5.1c-7.1,0-12.8-2.3-12.8-5.1v-3.3H942V391.8z"/>
		<path class="st6" d="M942,389.1c0,2.8-5.7,5.1-12.8,5.1c-7.1,0-12.8-2.3-12.8-5.1v-3.3H942V389.1z"/>
		<ellipse class="st7" cx="929.2" cy="385.8" rx="12.8" ry="5.1"/>
		<path class="st6" d="M939.4,384.8c0,2.2-4.6,4.1-10.2,4.1c-5.6,0-10.2-1.8-10.2-4.1V382h20.4V384.8z"/>
		<ellipse class="st7" cx="929.2" cy="382" rx="10.2" ry="4.1"/>
		<rect x="978.3" y="404.2" class="st20" width="16.1" height="95.7"/>
		<rect x="705.1" y="404.2" class="st20" width="16.1" height="95.7"/>
		<path class="st8" d="M870,416.1h-40.3c-2.5,0-4.5,2-4.5,4.5v46.1c0,2.5,2,4.5,4.5,4.5H870c2.5,0,4.5-2,4.5-4.5v-46.1
			C874.4,418.1,872.4,416.1,870,416.1z"/>
		<path class="st13" d="M832.6,421.8c0,1-0.8,1.7-1.7,1.7c-1,0-1.7-0.8-1.7-1.7c0-1,0.8-1.7,1.7-1.7
			C831.8,420,832.6,420.8,832.6,421.8z"/>
		<circle class="st13" cx="868.7" cy="421.8" r="1.7"/>
		<path class="st13" d="M832.6,465.4c0-1-0.8-1.7-1.7-1.7c-1,0-1.7,0.8-1.7,1.7c0,1,0.8,1.7,1.7,1.7
			C831.8,467.1,832.6,466.4,832.6,465.4z"/>
		<circle class="st13" cx="868.7" cy="465.4" r="1.7"/>
		<rect x="842.6" y="434.8" class="st13" width="14.4" height="17.6"/>
		<rect x="845.8" y="438.1" class="st8" width="2.4" height="10.9"/>
	</g>
</g>
<g id="StickersGame">
	<g>
		<path id="Shadow_9_" class="st21" d="M1026.9,581.7l108.2,99.4c5.3,4.9,12.6,6.2,18.4,3.4l209.8-102.8c10.7-5.2,11.7-21.2,2-30.1
			l-111.7-103.1c-5.4-5-12.8-6.3-18.7-3.2l-206.3,106.4C1018.2,557.1,1017.3,572.9,1026.9,581.7z"/>
		<polygon class="st22" points="1068.6,181.7 1099.1,218.2 1064.4,360.7 1015.6,384.4 1035.8,568.3 1148,663.1 1346.5,576 
			1350,150.4 1250.4,113.4 1086.5,127.4 		"/>
		<path id="StickersScreen_6_" class="st23" d="M1231.4,231.7c-34.5-3.8-68.3-6.8-101.4-8.9c-4.8-0.3-9.2,2.7-10.8,7.2
			c-15.1,43.2-29.6,86.8-35.7,129.3c-0.8,5.3,2.4,10.4,7.6,11.9c34.1,10.2,67,20.2,97.5,29.1c5.8,1.7,11.9-1.7,13.5-7.6l38.6-147.6
			C1242.3,238.8,1237.9,232.4,1231.4,231.7z"/>
		<ellipse class="st24" cx="1080.1" cy="392.9" rx="5.2" ry="3.2"/>
		<ellipse class="st25" cx="1094.3" cy="397.7" rx="5.2" ry="3.2"/>
		<g>
			<path class="st26" d="M1067.6,388.9L1067.6,388.9c-0.7,0-1.3-0.6-1.3-1.3v-17.8h2.6v17.8C1068.9,388.3,1068.3,388.9,1067.6,388.9
				z"/>
			<circle class="st27" cx="1067.6" cy="372" r="5.2"/>
		</g>
		<ellipse class="st24" cx="1136.6" cy="415.5" rx="5.2" ry="3.2"/>
		<ellipse class="st27" cx="1092.7" cy="388.7" rx="5.2" ry="3.2"/>
		<ellipse class="st27" cx="1149.3" cy="411.3" rx="5.2" ry="3.2"/>
		<ellipse class="st25" cx="1150.9" cy="420.3" rx="5.2" ry="3.2"/>
		<g>
			<path class="st26" d="M1124.2,411.5L1124.2,411.5c-0.7,0-1.3-0.6-1.3-1.3v-17.8h2.6v17.8C1125.5,411,1124.9,411.5,1124.2,411.5z"
				/>
			<circle class="st27" cx="1124.2" cy="394.6" r="5.2"/>
		</g>
	</g>
</g>
<g id="ChatGame">
	<g>
		<polygon class="st17" points="305,181.7 274.5,218.2 309.2,360.7 358,384.4 337.8,568.3 225.6,663.1 27.1,576 23.6,150.4 
			123.2,113.4 287.1,127.4 		"/>
		<path id="ChatScreen_6_" class="st23" d="M142.2,231.7c34.5-3.8,68.3-6.8,101.4-8.9c4.8-0.3,9.2,2.7,10.8,7.2
			c15.1,43.2,29.6,86.8,35.7,129.3c0.8,5.3-2.4,10.4-7.6,11.9c-34.1,10.2-67,20.2-97.5,29.1c-5.8,1.7-11.9-1.7-13.5-7.6L133,245.2
			C131.3,238.8,135.7,232.4,142.2,231.7z"/>
		<ellipse class="st24" cx="293.5" cy="392.9" rx="5.2" ry="3.2"/>
		<ellipse class="st25" cx="279.3" cy="397.7" rx="5.2" ry="3.2"/>
		<g>
			<path class="st26" d="M306,388.9L306,388.9c0.7,0,1.3-0.6,1.3-1.3v-17.8h-2.6v17.8C304.7,388.3,305.3,388.9,306,388.9z"/>
			<circle class="st27" cx="306" cy="372" r="5.2"/>
		</g>
		<ellipse class="st24" cx="237" cy="415.5" rx="5.2" ry="3.2"/>
		<ellipse class="st27" cx="280.9" cy="388.7" rx="5.2" ry="3.2"/>
		<ellipse class="st27" cx="224.3" cy="411.3" rx="5.2" ry="3.2"/>
		<ellipse class="st25" cx="222.8" cy="420.3" rx="5.2" ry="3.2"/>
		<g>
			<path class="st26" d="M249.4,411.5L249.4,411.5c0.7,0,1.3-0.6,1.3-1.3v-17.8h-2.6v17.8C248.2,411,248.7,411.5,249.4,411.5z"/>
			<circle class="st27" cx="249.4" cy="394.6" r="5.2"/>
		</g>
		<path id="Shadow_8_" class="st21" d="M347.3,581.7l-108.2,99.4c-5.3,4.9-12.6,6.2-18.4,3.4L10.9,581.8c-10.7-5.2-11.7-21.2-2-30.1
			l111.7-103.1c5.4-5,12.8-6.3,18.7-3.2l206.3,106.4C356,557.1,356.9,572.9,347.3,581.7z"/>
	</g>
</g>
<text transform="matrix(0.9975 7.069334e-02 -7.069334e-02 0.9975 177.0955 166.7276)" class="st10 st28 st29">CHAT</text>
<text transform="matrix(1 6.398198e-04 -6.398198e-04 1 1106.0757 167.3643)" class="st10 st28 st29">STICKERS</text>
<text transform="matrix(1 0 0 1 482.103 140.8844)" class="st10 st28 st29">MAZE</text>
<text transform="matrix(1 0 0 1 804.103 140.8844)" class="st10 st28 st29">CARDS</text>
</svg>
