<?xml version="1.0" encoding="utf-8"?>
<!-- Generator: Adobe Illustrator 22.0.1, SVG Export Plug-In . SVG Version: 6.00 Build 0)  -->
<svg version="1.1" id="Layer_1" xmlns="http://www.w3.org/2000/svg" xmlns:xlink="http://www.w3.org/1999/xlink" x="0px" y="0px"
	 viewBox="0 0 315 237" style="enable-background:new 0 0 315 237;" xml:space="preserve">
<style type="text/css">
	.st0{fill:#FBE764;}
	.st1{fill:#003C8F;}
	.st2{fill:#003C8F;stroke:#003C8F;stroke-width:3.9188;stroke-miterlimit:10;}
	.st3{fill:#FFFFFF;}
	.st4{fill:#E33F91;stroke:#003C8F;stroke-width:2.6126;stroke-linecap:round;stroke-miterlimit:10;}
	.st5{fill:#5AADDC;stroke:#003C8F;stroke-width:2.6126;stroke-linecap:round;stroke-linejoin:round;stroke-miterlimit:10;}
	.st6{fill:#5AADDC;stroke:#003C8F;stroke-width:2.5422;stroke-linecap:round;stroke-linejoin:round;stroke-miterlimit:10;}
	.st7{fill:none;stroke:#003C8F;stroke-width:1.3063;stroke-linecap:round;stroke-linejoin:round;stroke-miterlimit:10;}
</style>
<g>
	<g>
		<polygon class="st0" points="75.3,226.5 28.3,88.5 151.5,3.1 274.7,88.5 227.7,226.5 		"/>
		<path class="st1" d="M151.5,6.2l120.2,83.3L225.9,224H77.1L31.3,89.5L151.5,6.2 M151.5,0L25.2,87.5l48.2,141.6h156.1l48.2-141.6
			L151.5,0L151.5,0z"/>
	</g>
	<path class="st1" d="M158.4,106.1l139.3-28c6-1.2,11.7,3.2,11.7,9.2v87.2c0,4.7-3.6,8.6-8.4,9.3l-143.5-28.4L158.4,106.1z"/>
	<path class="st1" d="M138.1,107.1L14.2,81.3c-5.4-1.1-10.4,3-10.4,8.5v80.4c0,4.3,3.2,8,7.5,8.6L139,152.5L138.1,107.1z"/>
	<path class="st2" d="M205.9,176l-7.8-17.2h-0.2c-1.8-4.8-6-8-10.6-8h-25.7c0-0.1,0-0.1,0-0.2c0,0,0,0,0,0c0.6,0,1.1-0.4,1.2-1
		c0.1-0.6-0.3-1.2-0.8-1.4c0-0.5,0.1-1,0.1-1.5c0.2-0.1,0.4-0.2,0.5-0.4c0.1-0.3-0.1-0.5-0.4-0.6c0-0.4,0.1-0.7,0.1-1.1
		c0.5-0.1,0.9-0.4,1-0.9c0.2-0.6-0.2-1.2-0.8-1.4c0.1-0.6,0.1-1.2,0.2-1.8c0.1-0.1,0.3-0.2,0.3-0.4c0.1-0.2,0-0.4-0.2-0.6
		c0.1-0.8,0.2-1.5,0.3-2.3c0.1,0,0.2,0.1,0.4,0.1c0.1,0.1,0.3,0.1,0.4,0.1c0.5,0,1-0.3,1.1-0.8c0.2-0.6-0.1-1.3-0.7-1.6
		c-0.3-0.1-0.6-0.2-0.9-0.3c1.5-9.6,3.3-17.5,5.7-29.8c0.8-4-1.5-8.1-5.7-10.9c0.3-0.7,0.5-1.4,0.5-2.1c0-4.3-5.8-7.9-13-7.9
		s-13,3.5-13,7.9c0,0.8,0.3,1.6,0.6,2.3c-4.9,3.1-7.7,7.7-6.9,11.8c2.3,11.9,4.1,19.5,5.5,29c-0.4,0.4-0.5,1.1-0.2,1.6
		c0.1,0.2,0.3,0.3,0.5,0.4c0.1,0.9,0.2,1.8,0.4,2.8c-0.1,0.2-0.1,0.3,0,0.5c0,0,0,0,0.1,0.1c0.1,0.7,0.2,1.4,0.3,2.1
		c-0.2,0.3-0.3,0.6-0.2,1c0.1,0.2,0.2,0.4,0.3,0.6c0.1,1,0.2,2.1,0.3,3.2c0.1,1.2,0.4,2.3,0.7,3.3h-27.7c-4.9,0-9.2,3.5-10.8,8.8
		L93.4,176l1,2.1h0.4l6.3,13.8c1.5,5.3,5.8,8.9,10.6,8.9h75.6c4.6,0,8.7-3.3,10.4-8.2h0.2l6.6-14.5h0.4L205.9,176z"/>
	<g>
		<g>
			<path class="st3" d="M192,121c-3.2,0.4-4.9,0.6-8.1,1c0,10.6,0,15.9,0,26.5c-4.3-0.9-6.4-1.4-10.7-2.4c0-9.1,0-13.7,0-22.8
				c-3.2,0.4-4.8,0.6-8,1c0-2,0-3,0-5c10.7-2.3,16.1-3.4,26.8-5.7C192,116.6,192,118.1,192,121z"/>
			<path class="st3" d="M197.1,114.6c2.6-2.4,5.8-4.1,9.5-4.9c3.7-0.8,6.8-0.4,9.5,1.4c2.6,1.8,3.9,4.5,3.9,7.9c0,12.5,0,25,0,37.5
				c-4.3-0.9-6.4-1.4-10.7-2.4c0-3.5,0-5.3,0-8.8c-2.1-0.3-3.2-0.4-5.3-0.7c0,3.3,0,5,0,8.4c-4.3-0.9-6.4-1.4-10.7-2.4
				c0-9.5,0-19.1,0-28.6C193.2,119.4,194.5,117,197.1,114.6z M209.3,136.5c0-6.5,0-9.8,0-16.3c0-0.6-0.3-1.1-0.8-1.5
				c-0.5-0.4-1.1-0.5-1.9-0.4c-0.7,0.1-1.4,0.4-1.9,0.9c-0.5,0.5-0.8,1-0.8,1.6c0,6.2,0,9.3,0,15.5
				C206.1,136.3,207.1,136.4,209.3,136.5z"/>
			<path class="st3" d="M247.5,150.4c0,4.9,0,7.3,0,12.1c-9.4-2.1-14.2-3.1-23.6-5.2c0-16.8,0-33.6,0-50.4c4.3-0.9,6.4-1.4,10.7-2.3
				c0,14.7,0,29.4,0,44.1C239.8,149.4,242.4,149.7,247.5,150.4z"/>
			<path class="st3" d="M260.5,165.4c-4.3-0.9-6.4-1.4-10.7-2.4c0-20.5,0-41.1,0-61.6c4.3-0.9,6.4-1.4,10.7-2.3
				C260.5,121.3,260.5,143.3,260.5,165.4z"/>
			<path class="st3" d="M268.3,101.2c2.6-3.9,5.8-6.4,9.5-7.2c3.7-0.8,6.8,0.3,9.5,3.6c2.6,3.3,3.9,7.8,3.9,13.3
				c0,20.4,0,40.8,0,61.2c-4.3-0.9-6.4-1.4-10.7-2.4c0-6,0-9,0-15c-2.1-0.3-3.2-0.4-5.3-0.7c0,5.8,0,8.7,0,14.5
				c-4.3-0.9-6.4-1.4-10.7-2.4c0-17.4,0-34.9,0-52.3C264.4,109.2,265.7,105.1,268.3,101.2z M280.5,139.8c0-11.1,0-16.6,0-27.7
				c0-1-0.3-1.9-0.8-2.6c-0.5-0.7-1.1-0.9-1.9-0.8c-0.7,0.1-1.4,0.5-1.9,1.3c-0.5,0.8-0.8,1.7-0.8,2.7c0,10.7,0,16.1,0,26.8
				C277.2,139.7,278.3,139.7,280.5,139.8z"/>
		</g>
	</g>
	<g>
		<g>
			<path class="st3" d="M19.2,99.7c1.7-3.1,3.8-4.3,6.2-3.9c2.4,0.4,4.5,2.4,6.2,5.7c1.7,3.4,2.6,7.1,2.6,11.5c0,16.1,0,32.2,0,48.3
				c-2.8,0.5-4.2,0.7-7,1.2c0-5.2,0-7.8,0-13c-1.4,0.1-2.1,0.2-3.5,0.4c0,5.3,0,8,0,13.3c-2.8,0.5-4.2,0.7-7,1.2
				c0-17.6,0-35.3,0-52.9C16.7,106.7,17.5,102.8,19.2,99.7z M27.2,136.5c0-9.6,0-14.4,0-24.1c0-0.9-0.2-1.7-0.5-2.4
				c-0.3-0.7-0.8-1-1.2-1.1c-0.5-0.1-0.9,0.2-1.3,0.8c-0.3,0.6-0.5,1.4-0.5,2.3c0,9.8,0,14.7,0,24.5
				C25.1,136.6,25.8,136.6,27.2,136.5z"/>
			<path class="st3" d="M52.3,146.9c0,4.5,0,6.8,0,11.3c-6.2,1.1-9.3,1.6-15.5,2.7c0-17.7,0-35.5,0-53.2c2.8,0.3,4.2,0.5,7,0.8
				c0,13.1,0,26.2,0,39.2C47.2,147.4,48.9,147.3,52.3,146.9z"/>
			<path class="st3" d="M71.7,111.9c0,6.2,0,9.3,0,15.5c0,2.5-0.5,4.8-1.4,6.9c-0.9,2.1-2.2,3.7-3.7,4.8c0,6.6,0,10,0,16.6
				c-2.8,0.5-4.2,0.7-7,1.2c0-6.9,0-10.4,0-17.3c-1.6-0.9-2.9-2.5-3.8-4.7c-1-2.3-1.5-4.9-1.5-7.7c0-6.9,0-10.4,0-17.3
				c2.8,0.3,4.2,0.5,7,0.8c0,6.6,0,9.9,0,16.6c0,0.7,0.2,1.4,0.5,1.9c0.3,0.5,0.8,0.8,1.2,0.8c0.5,0,0.9-0.3,1.2-0.8
				c0.3-0.5,0.5-1.1,0.5-1.9c0-6.5,0-9.7,0-16.2C67.5,111.4,68.9,111.6,71.7,111.9z"/>
			<path class="st3" d="M91.4,114.3c0,12.3,0,24.7,0,37c-2.8,0.5-4.2,0.7-7,1.2c0-3.9,0-5.8,0-9.7c-1.4-4.1-2.1-6.2-3.5-10.6
				c0,8.3,0,12.5,0,20.9c-2.8,0.5-4.2,0.7-7,1.2c0-14.1,0-28.1,0-42.2c2.8,0.3,4.2,0.5,7,0.8c0,0.1,0,0.1,0,0.2
				c1.4,4.5,2.1,6.8,3.5,11.1c0-4.3,0-6.5,0-10.9C87.2,113.8,88.6,114,91.4,114.3z"/>
			<path class="st3" d="M111.5,116.7c0,10.4,0,20.7,0,31.1c-2.8,0.5-4.2,0.7-7,1.2c0-3.3,0-4.9,0-8.2c-1.4-3.5-2.1-5.3-3.5-9
				c0,7.1,0,10.7,0,17.8c-2.8,0.5-4.2,0.7-7,1.2c0-12.1,0-24.2,0-36.3c2.8,0.3,4.2,0.5,7,0.8c0,0.1,0,0.1,0,0.2
				c1.4,3.9,2.1,5.8,3.5,9.5c0-3.7,0-5.5,0-9.2C107.3,116.2,108.7,116.4,111.5,116.7z"/>
			<path class="st3" d="M116.4,119.1c1.7-1.5,3.8-2,6.2-1.7c2.4,0.3,4.5,1.4,6.2,3c1.7,1.7,2.6,3.4,2.6,5.5c0,7.4,0,11.1,0,18.6
				c-2.8,0.5-4.2,0.7-7,1.2c0-2.5,0-3.8,0-6.4c-1.4,0.1-2.1,0.2-3.5,0.4c0,2.6,0,4,0,6.6c-2.8,0.5-4.2,0.7-7,1.2
				c0-8.9,0-13.4,0-22.4C113.8,122.6,114.7,120.6,116.4,119.1z M124.3,132.9c0-2.9,0-4.4,0-7.3c0-0.4-0.2-0.8-0.5-1.2
				c-0.3-0.3-0.8-0.5-1.2-0.5c-0.5,0-0.9,0.1-1.3,0.4c-0.3,0.3-0.5,0.7-0.5,1.1c0,3,0,4.6,0,7.6
				C122.2,132.9,122.9,132.9,124.3,132.9z"/>
		</g>
	</g>
	<g>
		<path class="st4" d="M166,92c0,4.3-5.8,7.9-13,7.9c-7.2,0-13-3.5-13-7.9c0-4.3,5.8-7.9,13-7.9C160.1,84.1,166,87.6,166,92z"/>
		<g>
			<path class="st5" d="M154.8,161c-2.1-0.2-3.1-0.3-5.1-0.4c-4.6-0.4-8.5-5-8.9-10.3c-1.4-15.9-4.7-31.5-7.7-47.1
				c-1-5.2,5.5-11.4,14.4-12.2c3.9-0.4,5.9-0.4,9.9-0.4c8.9,0,15.5,5.8,14.5,11.3c-3.2,16.5-6.7,33-8.2,49.7
				C163.2,157.2,159.4,161.4,154.8,161z"/>
		</g>
		<path class="st5" d="M205.9,176.8l0.4-0.8c-3.2-7.2-7.1-23.9-17.1-23.9h-75.6c-4.4,0-8.2,3.4-9.6,8L96.8,176l0.4,0.8H205.9z"/>
		<path class="st6" d="M99.9,185c3.9,5.9,7.1,14.8,15.5,14.8c0,0,71.6,0,71.6,0c8,0,12-9.1,15.8-14.8L99.9,185z"/>
		<path class="st7" d="M139.9,136c3.4-2.4,8.7-2.9,12.7-2.8c4.9,0.1,8.7,1.2,13.4,3"/>
		<path class="st7" d="M140.3,140.1c7.8-3.9,16.3-2.8,24.2-0.2"/>
		<path class="st7" d="M141,143.3c7.6-2,15.5-1.9,23,0.1"/>
		<path class="st7" d="M141.1,146.5c7.5-1.7,15.3-1.8,22.8-0.3"/>
		<path class="st7" d="M142.2,148.8c7.1-0.9,14.3-0.7,21.3,0.5"/>
	</g>
	<line class="st7" x1="95.3" y1="171.8" x2="204.4" y2="171.8"/>
	<line class="st7" x1="95.3" y1="181.1" x2="204.4" y2="181.1"/>
	<polygon class="st1" points="109.3,65.3 113.4,73.6 122.5,74.9 115.9,81.4 117.5,90.5 109.3,86.2 101.1,90.5 102.7,81.4 96.1,74.9 
		105.2,73.6 	"/>
	<polygon class="st1" points="192.7,65.3 196.8,73.6 205.9,74.9 199.3,81.4 200.9,90.5 192.7,86.2 184.5,90.5 186.1,81.4 
		179.5,74.9 188.6,73.6 	"/>
	<polygon class="st1" points="151.5,38.4 155.6,46.7 164.7,48.1 158.1,54.5 159.7,63.6 151.5,59.3 143.3,63.6 144.9,54.5 
		138.3,48.1 147.4,46.7 	"/>
</g>
</svg>
